<svg xmlns="http://www.w3.org/2000/svg" width="23.582" height="19.187" viewBox="0 0 23.582 19.187">
  <path id="heart-outlined" d="M23.048,4.583a6.247,6.247,0,0,0-8.3,0L13.191,6.01,11.633,4.583a6.245,6.245,0,0,0-8.3,0,5.7,5.7,0,0,0,0,8.562l9.857,9.047,9.857-9.047A5.707,5.707,0,0,0,23.048,4.583Zm-1.461,7.155-8.4,7.835-8.4-7.835A3.742,3.742,0,0,1,3.62,8.867,3.349,3.349,0,0,1,4.656,6.127,4.154,4.154,0,0,1,7.485,5.062,4.421,4.421,0,0,1,10.312,6.4l2.879,2.5,2.878-2.5A4.427,4.427,0,0,1,18.9,5.06a4.154,4.154,0,0,1,2.828,1.065A3.348,3.348,0,0,1,22.76,8.866a3.74,3.74,0,0,1-1.174,2.872Z" transform="translate(-1.399 -3.005)" fill="#03200a"/>
</svg>
