<svg xmlns="http://www.w3.org/2000/svg" width="18.4" height="14.952" viewBox="0 0 18.4 14.952">
  <path id="twitter" d="M17.316,6.246c.008.162.011.326.011.488A10.667,10.667,0,0,1,6.587,17.476,10.677,10.677,0,0,1,.8,15.779a7.658,7.658,0,0,0,.9.053,7.577,7.577,0,0,0,4.688-1.615A3.779,3.779,0,0,1,2.862,11.6a3.858,3.858,0,0,0,.71.066,3.786,3.786,0,0,0,.995-.131,3.779,3.779,0,0,1-3.028-3.7V7.781a3.766,3.766,0,0,0,1.71.473A3.778,3.778,0,0,1,2.081,3.213,10.716,10.716,0,0,0,9.862,7.158a3.813,3.813,0,0,1-.1-.861A3.777,3.777,0,0,1,16.3,3.715a7.6,7.6,0,0,0,2.4-.916,3.789,3.789,0,0,1-1.66,2.088A7.551,7.551,0,0,0,19.2,4.293a7.623,7.623,0,0,1-1.884,1.953Z" transform="translate(-0.8 -2.524)" fill="#fff"/>
</svg>
