<svg id="instagram" xmlns="http://www.w3.org/2000/svg" width="18.405" height="18.412" viewBox="0 0 18.405 18.412">
  <path id="Caminho_35" data-name="Caminho 35" d="M9.208,1.658c2.46,0,2.751.011,3.719.054a5.046,5.046,0,0,1,1.709.317,2.85,2.85,0,0,1,1.057.687,2.886,2.886,0,0,1,.691,1.058A5.066,5.066,0,0,1,16.7,5.481c.043.971.054,1.263.054,3.719s-.011,2.751-.054,3.719a5.046,5.046,0,0,1-.317,1.709,2.843,2.843,0,0,1-.687,1.057,2.888,2.888,0,0,1-1.057.691,5.07,5.07,0,0,1-1.709.317c-.971.043-1.263.054-3.719.054s-2.751-.011-3.719-.054a5.046,5.046,0,0,1-1.709-.317,2.849,2.849,0,0,1-1.058-.687,2.888,2.888,0,0,1-.691-1.057,5.07,5.07,0,0,1-.317-1.709c-.043-.971-.054-1.263-.054-3.719s.011-2.751.054-3.719a5.046,5.046,0,0,1,.317-1.709,2.857,2.857,0,0,1,.687-1.058,2.886,2.886,0,0,1,1.058-.691,5.066,5.066,0,0,1,1.709-.317c.967-.043,1.259-.054,3.719-.054ZM9.208,0C6.708,0,6.4.011,5.413.054A6.721,6.721,0,0,0,3.179.482,4.486,4.486,0,0,0,1.547,1.546,4.508,4.508,0,0,0,.482,3.176,6.743,6.743,0,0,0,.054,5.409C.011,6.395,0,6.707,0,9.207S.011,12.019.054,13a6.721,6.721,0,0,0,.428,2.233,4.494,4.494,0,0,0,1.065,1.633,4.5,4.5,0,0,0,1.629,1.061,6.743,6.743,0,0,0,2.233.428c.982.043,1.295.054,3.795.054S12.017,18.4,13,18.357a6.721,6.721,0,0,0,2.233-.428,4.706,4.706,0,0,0,2.69-2.69,6.743,6.743,0,0,0,.428-2.233c.043-.982.054-1.295.054-3.795s-.011-2.812-.054-3.795a6.721,6.721,0,0,0-.428-2.233,4.32,4.32,0,0,0-1.054-1.637A4.5,4.5,0,0,0,15.24.485,6.743,6.743,0,0,0,13.006.057C12.021.01,11.708,0,9.208,0h0Z" transform="translate(0 0.001)" fill="#fff"/>
  <path id="Caminho_36" data-name="Caminho 36" d="M12.511,7.781a4.73,4.73,0,1,0,4.73,4.73A4.731,4.731,0,0,0,12.511,7.781Zm0,7.8a3.068,3.068,0,1,1,3.068-3.068A3.068,3.068,0,0,1,12.511,15.579Z" transform="translate(-3.303 -3.303)" fill="#fff"/>
  <path id="Caminho_37" data-name="Caminho 37" d="M24.833,6.641a1.1,1.1,0,1,1-1.1-1.1A1.1,1.1,0,0,1,24.833,6.641Z" transform="translate(-9.605 -2.35)" fill="#fff"/>
</svg>
