<svg id="linkedin" xmlns="http://www.w3.org/2000/svg" width="18" height="18" viewBox="0 0 18 18">
  <path id="Caminho_38" data-name="Caminho 38" d="M5,3A1.9,1.9,0,0,1,3,4.976,1.9,1.9,0,0,1,1,3.052,1.969,1.969,0,0,1,3,1,1.941,1.941,0,0,1,5,3ZM1,19V6H5V19Z" transform="translate(-1 -1)" fill="#fff"/>
  <path id="Caminho_39" data-name="Caminho 39" d="M7,10.444C7,8.9,6.949,7.608,6.9,6.493h3.594l.178,1.723h.076a4.442,4.442,0,0,1,3.822-2C17.1,6.216,19,7.911,19,11.558V19H15V12.139c0-1.594-.607-2.81-2-2.81A2.1,2.1,0,0,0,11.127,10.9a2.76,2.76,0,0,0-.127.963V19H7Z" transform="translate(-1 -1)" fill="#fff"/>
</svg>
